<?xml version="1.0" encoding="UTF-8" standalone="no"?>
<svg xmlns:dc="http://purl.org/dc/elements/1.1/" xmlns:cc="http://creativecommons.org/ns#" xmlns:rdf="http://www.w3.org/1999/02/22-rdf-syntax-ns#" xmlns:svg="http://www.w3.org/2000/svg" xmlns="http://www.w3.org/2000/svg" viewBox="0 0 386.172 127.35813" height="127.35813" width="386.172" xml:space="preserve" id="svg2" version="1.1">
	<metadata id="metadata8">
		<RDF>
			<Work rdf:about="">
				<format>
					image/svg+xml
				</format>
				<type rdf:resource="http://purl.org/dc/dcmitype/StillImage" />
			</Work>
		</RDF>
	</metadata>
	<defs id="defs6">
		<clipPath id="clipPath18" clipPathUnits="userSpaceOnUse">
			<path id="path16" d="M 0,95.519 H 289.629 V 0 H 0 Z" />
		</clipPath>
	</defs>
	<g transform="matrix(1.3333333,0,0,-1.3333333,0,127.35813)" id="g10">
		<g id="g12">
			<g clip-path="url(#clipPath18)" id="g14">
				<g transform="translate(29.2803,23.5186)" id="g20">
					<path id="path22" style="fill:#FFFFFF;fill-opacity:1;fill-rule:nonzero;stroke:none" d="m 0,0 h -4.608 c -3.905,0 -7.234,0.464 -9.984,1.393 -2.753,0.926 -5.28,2.447 -7.584,4.559 -3.01,2.817 -5.025,6.336 -6.049,10.561 -0.705,2.942 -1.055,7.326 -1.055,13.151 V 68.448 H -8.832 V 28.032 c 0,-5.505 2.304,-8.256 6.911,-8.256 L 0,19.872 Z" />
				</g>
				<g transform="translate(52.9922,86.207)" id="g24">
					<path id="path26" style="fill:#FFFFFF;fill-opacity:1;fill-rule:nonzero;stroke:none" d="m 0,0 c 0,-2.561 -0.883,-4.737 -2.646,-6.528 -1.765,-1.793 -3.94,-2.688 -6.522,-2.688 -2.521,0 -4.663,0.895 -6.427,2.688 -1.764,1.791 -2.646,3.967 -2.646,6.528 0,2.622 0.882,4.832 2.646,6.624 1.764,1.79 3.906,2.688 6.427,2.688 2.52,0 4.677,-0.913 6.473,-2.736 C -0.899,4.752 0,2.559 0,0 m 0,-62.688 h -18.24 v 48.864 H 0 Z" />
				</g>
				<g transform="translate(104.7354,23.5186)" id="g28">
					<path id="path30" style="fill:#FFFFFF;fill-opacity:1;fill-rule:nonzero;stroke:none" d="m 0,0 h -18.72 v 23.137 c 0,2.366 -0.223,4.062 -0.672,5.088 -0.448,1.022 -1.408,1.536 -2.879,1.536 -1.409,0 -2.353,-0.529 -2.833,-1.584 -0.48,-1.057 -0.72,-2.737 -0.72,-5.04 V 0 h -18.239 v 20.448 c 0,3.2 0.047,5.569 0.143,7.105 0.096,1.535 0.432,3.359 1.008,5.471 1.407,5.439 3.936,9.663 7.584,12.672 3.648,3.008 8.064,4.512 13.248,4.512 3.711,0 7.071,-0.801 10.08,-2.399 3.008,-1.601 5.535,-3.937 7.584,-7.009 1.856,-2.817 3.104,-6.048 3.744,-9.696 C -0.226,28.479 0,24.927 0,20.448 Z" />
				</g>
				<g transform="translate(161.0869,23.5186)" id="g32">
					<path id="path34" style="fill:#FFFFFF;fill-opacity:1;fill-rule:nonzero;stroke:none" d="M 0,0 H -19.682 L -30.624,30.336 V 0 h -18.24 v 68.448 h 18.24 v -35.04 l 8.256,15.456 h 18.91 l -8.927,-17.088 z" />
				</g>
				<g transform="translate(181.0537,86.207)" id="g36">
					<path id="path38" style="fill:#FFFFFF;fill-opacity:1;fill-rule:nonzero;stroke:none" d="m 0,0 c 0,-2.561 -0.883,-4.737 -2.646,-6.528 -1.764,-1.793 -3.94,-2.688 -6.523,-2.688 -2.519,0 -4.662,0.895 -6.425,2.688 -1.763,1.791 -2.645,3.967 -2.645,6.528 0,2.622 0.882,4.832 2.645,6.624 1.763,1.79 3.906,2.688 6.425,2.688 2.521,0 4.679,-0.913 6.476,-2.736 C -0.897,4.752 -0.001,2.559 -0.001,0 M 0,-62.688 h -18.24 v 48.864 H 0 Z" />
				</g>
				<g transform="translate(232.7988,23.5186)" id="g40">
					<path id="path42" style="fill:#FFFFFF;fill-opacity:1;fill-rule:nonzero;stroke:none" d="m 0,0 h -18.721 v 23.137 c 0,2.366 -0.224,4.062 -0.673,5.088 -0.448,1.022 -1.408,1.536 -2.878,1.536 -1.41,0 -2.354,-0.529 -2.832,-1.584 -0.48,-1.057 -0.72,-2.737 -0.72,-5.04 V 0 h -18.241 v 20.448 c 0,3.2 0.048,5.569 0.145,7.105 0.095,1.535 0.432,3.359 1.007,5.471 1.407,5.439 3.936,9.663 7.585,12.672 3.646,3.008 8.063,4.512 13.246,4.512 3.713,0 7.072,-0.801 10.082,-2.399 3.007,-1.601 5.533,-3.937 7.582,-7.009 1.856,-2.817 3.106,-6.048 3.744,-9.696 C -0.226,28.479 0,24.927 0,20.448 Z" />
				</g>
				<g transform="translate(289.6289,25.9189)" id="g44">
					<path id="path46" style="fill:#FFFFFF;fill-opacity:1;fill-rule:nonzero;stroke:none" d="m 0,0 c 0,-7.488 -2.64,-13.681 -7.92,-18.576 -5.279,-4.897 -12.081,-7.343 -20.399,-7.343 -2.946,0 -5.73,0.544 -8.354,1.631 v 17.279 c 2.432,-1.151 4.768,-1.727 7.01,-1.727 3.391,0 6.142,1.025 8.254,3.072 2.112,2.049 3.168,4.607 3.168,7.681 v 16.031 c 0,3.968 -0.447,6.752 -1.343,8.351 -1.089,1.985 -3.071,2.977 -5.951,2.977 -1.986,0 -3.65,-0.641 -4.992,-1.92 -1.345,-1.282 -2.017,-2.784 -2.017,-4.513 0,-1.92 0.655,-3.471 1.967,-4.655 1.312,-1.184 3.025,-1.776 5.138,-1.776 0.702,0 1.246,0.032 1.631,0.095 0.384,0.063 1.023,0.289 1.92,0.672 V 0 c -2.496,-0.767 -4.864,-1.152 -7.103,-1.152 -6.402,0 -11.699,2.161 -15.889,6.479 -4.193,4.32 -6.288,9.903 -6.288,16.753 0,7.359 2.431,13.502 7.296,18.432 4.863,4.927 10.911,7.391 18.143,7.391 5.185,0 9.759,-1.215 13.729,-3.647 3.969,-2.433 6.974,-5.857 9.024,-10.273 1.215,-2.624 2.015,-5.169 2.399,-7.631 C -0.193,23.888 0,21.12 0,18.048 Z" />
				</g>
			</g>
		</g>
	</g>
</svg>
